<svg height="223" viewBox="0 0 298 223" width="298" xmlns="http://www.w3.org/2000/svg"><g fill="none" fill-rule="evenodd"><g transform="translate(83 102)"><path d="m34.8955978 29.0376596c0 1.6453191.1719064 2.9793617.4727424 3.9576595.3438127.9782979.7735785 2.045532 1.3752506 3.2017022.2148829.3557447.3008361.7114893.3008361 1.0227659 0 .4446809-.2578595.8893617-.816555 1.3340426l-2.7075247 1.8676596c-.3867892.2668085-.7735784.4002127-1.1173911.4002127-.4297658 0-.8595316-.2223404-1.2892974-.6225532-.6016722-.6670212-1.1173912-1.3785106-1.547157-2.09-.4297658-.7559574-.8595316-1.600851-1.332274-2.623617-3.3521734 4.0910638-7.5638783 6.1365958-12.635115 6.1365958-3.6100328 0-6.48946376-1.0672341-8.59531626-3.2017022-2.10585249-2.1344681-3.18026703-4.9804255-3.18026703-8.5378723 0-3.7797872 1.28929745-6.8480851 3.91086892-9.1604255 2.62157147-2.3123405 6.10267457-3.4685107 10.52926247-3.4685107 1.4612038 0 2.9653841.1334043 4.5555176.3557447s3.2232436.5780851 4.9423069.9782979v-3.2461702c0-3.3795745-.6876253-5.73638302-2.0198993-7.11489366-1.3752506-1.37851063-3.695986-2.04553191-7.0051828-2.04553191-1.5041804 0-3.0513373.17787234-4.6414708.57808511-1.5901335.40021276-3.1372905.8893617-4.64147081 1.51191489-.68762531.3112766-1.20334428.48914894-1.50418035.57808511-.30083608.08893617-.51571898.13340425-.68762531.13340425-.60167214 0-.90250821-.44468085-.90250821-1.37851064v-2.17893617c0-.71148936.08595316-1.24510638.30083607-1.55638298.21488291-.31127659.60167214-.62255319 1.20334428-.93382978 1.50418035-.80042553 3.30919673-1.46744681 5.41504923-2.00106383 2.1058525-.57808511 4.3406348-.84489362 6.7043468-.84489362 5.1142132 0 8.8531757 1.2006383 11.2598643 3.60191489 2.363712 2.4012766 3.5670563 6.04765958 3.5670563 10.93914894v14.4076596zm-17.4484921 6.7591489c1.4182272 0 2.879431-.2668085 4.4265879-.8004255 1.547157-.533617 2.9224076-1.5119149 4.0827753-2.8459575.6876253-.8448936 1.2033443-1.7787234 1.4612038-2.8459574.2578594-1.0672341.4297658-2.3568085.4297658-3.8687234v-1.8676596c-1.2463209-.3112766-2.5785949-.5780851-3.9538455-.7559574-1.3752506-.1778724-2.7075247-.2668086-4.0397987-.2668086-2.879431 0-4.9852834.5780852-6.4035106 1.7787235s-2.1058525 2.8904255-2.1058525 5.1138297c0 2.09.515719 3.646383 1.5901335 4.7136171 1.0314379 1.1117021 2.5356183 1.6453191 4.512541 1.6453191zm34.510195 4.8025532c-.7735785 0-1.2892975-.1334043-1.6331101-.4446808-.3438127-.2668086-.6446487-.8893618-.9025082-1.7342554l-10.0994967-34.37382976c-.2578595-.8893617-.3867892-1.4674468-.3867892-1.7787234 0-.71148936.3438126-1.11170213 1.0314379-1.11170213h4.211705c.8165551 0 1.3752506.13340426 1.6760867.44468085.3438127.26680851.6016722.88936171.8595316 1.73425532l7.2200657 29.43787232 6.7043467-29.43787232c.214883-.8893617.4727424-1.46744681.8165551-1.73425532.3438126-.26680851.9454848-.44468085 1.7190633-.44468085h3.4381265c.816555 0 1.3752506.13340426 1.7190632.44468085.3438127.26680851.6446488.88936171.8165551 1.73425532l6.7902999 29.79361702 7.4349486-29.79361702c.2578594-.8893617.5586955-1.46744681.8595316-1.73425532.3438126-.26680851.9025082-.44468085 1.6760867-.44468085h3.996822c.6876254 0 1.0744146.35574468 1.0744146 1.11170213 0 .22234043-.0429766.44468085-.0859532.71148936s-.1289297.62255319-.300836 1.11170213l-10.3573562 34.37382977c-.2578595.8893617-.5586955 1.4674468-.9025082 1.7342553s-.9025082.4446809-1.6331101.4446809h-3.695986c-.8165551 0-1.3752506-.1334043-1.7190633-.4446809-.3438126-.3112766-.6446487-.8893617-.816555-1.7787234l-6.6613701-28.68191486-6.6183936 28.63744676c-.2148829.8893617-.4727424 1.4674469-.816555 1.7787235-.3438127.3112765-.9454848.4446808-1.7190633.4446808zm55.2249073 1.2006383c-2.234782 0-4.469565-.2668085-6.618394-.8004255-2.1488287-.5336171-3.8249154-1.1117022-4.9423065-1.7787234-.6876253-.4002128-1.1603677-.8448937-1.332274-1.2451064-.1719064-.4002128-.2578595-.8448936-.2578595-1.2451064v-2.2678723c0-.9338298.3438126-1.3785107.9884613-1.3785107.2578595 0 .515719.0444681.7735785.1334043.2578595.0889361.6446487.2668085 1.0744145.4446808 1.4612038.6670213 3.0513373 1.2006383 4.7274237 1.556383 1.719064.3557447 3.39515.533617 5.114214.533617 2.707524 0 4.813377-.4891489 6.27458-1.4674468 1.461204-.9782979 2.234783-2.4012766 2.234783-4.2244681 0-1.2451064-.38679-2.2678723-1.160368-3.1127659-.773579-.8448936-2.234782-1.6008511-4.340635-2.3123405l-6.231604-2.0010638c-3.137291-1.0227659-5.458026-2.5346808-6.8762531-4.5357447-1.4182272-1.9565957-2.1488291-4.1355319-2.1488291-6.4478723 0-1.86765958.3867892-3.51297873 1.1603677-4.93595745s1.8050164-2.66808511 3.0943139-3.64638298c1.2892976-1.02276596 2.7505016-1.7787234 4.4695646-2.31234042s3.52408-.75595745 5.415049-.75595745c.945485 0 1.933946.04446809 2.879431.17787234.988461.13340426 1.89097.3112766 2.793478.48914894.859531.22234042 1.676087.44468085 2.449665.71148936s1.375251.53361702 1.805016.80042553c.601673.35574468 1.031438.71148936 1.289298 1.11170213.257859.35574468.386789.84489361.386789 1.46744681v2.09c0 .93382978-.343813 1.42297872-.988461 1.42297872-.343813 0-.902508-.17787234-1.63311-.53361702-2.449666-1.15617021-5.200167-1.73425532-8.251504-1.73425532-2.449665 0-4.383611.40021277-5.715885 1.24510638-1.332274.84489362-2.0199 2.13446809-2.0199 3.95765953 0 1.2451064.429766 2.3123405 1.289298 3.1572341.859531.8448936 2.449665 1.6897872 4.727424 2.4457447l6.102674 2.0010638c3.094314 1.022766 5.329096 2.4457447 6.66137 4.2689362s1.976923 3.9131915 1.976923 6.2255319c0 1.9121276-.386789 3.646383-1.117391 5.1582979-.773578 1.5119149-1.805016 2.8459574-3.13729 3.9131914-1.332274 1.1117022-2.922408 1.9121277-4.770401 2.4902128-1.933946.6225532-3.953845.9338298-6.145651.9338298z" fill="#252f3e" fill-rule="nonzero"/><g fill="#f90" transform="translate(0 49.4)"><path d="m117.301325 12.0091176c-14.162252 9.5055883-34.7384111 14.5517648-52.4304641 14.5517648-24.794702 0-47.1357616-8.3320589-64.00993375-22.17970593-1.33443708-1.09529412-.12913907-2.58176471 1.46357616-1.72117647 18.25165559 9.6229412 40.76490069 15.4514706 64.05298009 15.4514706 15.7119206 0 32.97351-2.9729412 48.8576156-9.07529413 2.36755-.97794118 4.390729 1.40823533 2.066226 2.97294113z"/><path d="m123.198675 5.90676471c-1.807947-2.11235295-11.966887-1.01705883-16.572847-.50852942-1.377484.15647059-1.592715-.93882353-.344371-1.76029411 8.092715-5.16352942 21.39404-3.67705883 22.943709-1.95588236 1.549668 1.76029412-.430464 13.84764708-8.006623 19.63705878-1.162252.8997059-2.281457.4302942-1.764901-.7432352 1.721855-3.8726471 5.552981-12.5958824 3.745033-14.66911769z"/></g></g><path d="m214.769531 46.7486793c-3.298189-6.96875-7.566369-13.3083426-12.804687-19.0188523-5.238319-5.7105468-11.058557-10.598298-17.460938-14.6634393-6.402381-4.0651042-13.386681-7.25909603-20.953125-9.5820127-7.566443-2.32291667-15.520808-3.484375-23.863281-3.484375-11.058631 0-21.486619 1.9841425-31.284189 5.95246467-9.7975695 3.96835933-18.4309275 9.48523063-25.900372 16.55079983s-13.5322173 15.2924852-18.1885045 24.680971c-4.65625 9.388523-7.372371 19.5027623-8.1484375 30.3431268-8.1484748 2.3229167-15.6662697 5.7588635-22.5536905 10.3079149-6.8874057 4.5490885-12.8046651 9.9207868-17.7519568 16.1152438-4.947288 6.194457-8.82745658 13.114778-11.640625 20.761077-2.81316321 7.646298-4.2197247 15.631259-4.2197247 23.955069 0 9.872433 1.94008467 19.164025 5.8203125 27.875 3.8802282 8.710974 9.1669605 16.405567 15.8603497 23.083986 6.6933929 6.678415 14.5507366 12.05011 23.5722768 16.115232 9.021503 4.065125 18.7704613 6.388018 29.247061 6.96875h20.0800595c13.3867935 0 28.1799605.048394 44.3799105.145183 16.199951.096788 31.138579.145182 44.816406.145182h21.098624c12.222731 0 23.960243-2.322893 35.212872-6.96875 11.252666-4.645856 21.147123-10.937028 29.683631-18.873698 8.536471-7.93667 15.375273-17.276646 20.516592-28.020192 5.141282-10.743545 7.711905-22.212806 7.711905-34.408193 0-11.808222-2.13409-22.890356-6.402344-33.246736s-10.185491-19.4544083-17.751971-27.2942707c-7.566444-7.8398995-16.3938-14.227846-26.482404-19.1640625s-20.95305-7.6946521-32.59375-8.2754185zm-9.878133 157.8484077c-.388491 0-7.381026 0-20.977828 0s-28.504523 0-44.723573 0c-16.219049 0-31.078176 0-44.5778648 0-13.499689 0-20.2494402 0-20.2494402 0s-2.9135499-.581849-8.7407615-1.74557c-5.8272117-1.163721-12.2855856-3.636585-19.3753455-7.418676-7.0897598-3.782088-13.4995994-9.358156-19.2296828-16.728362-5.7300871-7.370236-8.595084-17.358697-8.595084-29.965644 0-6.982319 1.5053391-13.770586 4.516062-20.364988 3.0107192-6.594402 7.0411435-12.461417 12.0913849-17.601159 5.0502488-5.139778 10.9259053-9.309708 17.6272117-12.5099394 6.7012692-3.200231 13.9366245-4.9942491 21.7062152-5.3821661 0-9.6976629 1.5053316-19.0072599 4.5160694-27.9291262 3.0107006-8.9218663 7.332506-16.8253249 12.9654536-23.7106737 5.6329477-6.8853489 12.479812-12.4129326 20.54078-16.5829001 8.060968-4.1700047 17.141552-6.2549699 27.24205-6.2549699 15.927672 0 29.135834 4.3638701 39.624785 13.0917593 10.488951 8.7279264 17.578637 19.8800638 21.269168 33.4567844 11.654423-.3879169 22.240339 1.3576535 31.758119 5.2367112s17.724269 8.9702767 24.619802 15.2737316c6.895533 6.303492 12.285623 13.431154 16.170418 21.3832469 3.884796 7.952092 6.021402 15.710096 6.409892 23.274271.582718 10.27952-1.408218 19.928549-5.972844 28.947385-4.564664 9.018799-10.537433 16.922295-17.918571 23.710637-7.381137 6.788383-15.587663 12.122015-24.619802 16.00108-9.032176 3.879066-17.724306 5.818568-26.076614 5.818568z" fill="#1a3867"/></g></svg>